# xmcd CD database file
#
# Track frame offsets:
#	150
#	15258
#	33953
#	45066
#	61359
#	72723
#	83984
#	95902
#	109600
#	120852
#	130644
#
# Disc length: 2062 seconds
#
# Revision: 0
# Processed by: cddbd v1.5.2PL0 Copyright (c) Steve Scherf et al.
# Submitted via: CDex 1.51
#
DISCID=81080c0b
DTITLE=The Singing Santa - Let Them Be Little
DYEAR=2007
DGENRE=Country
TTITLE0=Joy to the world
TTITLE1=I'm dreaming of a white Christmas
TTITLE2=Walking in a winter wonderland
TTITLE3=Let them be little
TTITLE4=Here comes Santa Claus
TTITLE5=Have a Holly Jolly Christmas
TTITLE6=I'll be home for Christmas
TTITLE7=Go tell it on the mountain
TTITLE8=Let it snow
TTITLE9=Rocking around the Christmas tree
TTITLE10=Alton the smallest elf
EXTD=YEAR: 2007
EXTT0=
EXTT1=
EXTT2=
EXTT3=
EXTT4=
EXTT5=
EXTT6=
EXTT7=
EXTT8=
EXTT9=
EXTT10=
PLAYORDER=
